<?xml version="1.0" standalone="no"?>
<!DOCTYPE svg PUBLIC "-//W3C//DTD SVG 20010904//EN"
 "http://www.w3.org/TR/2001/REC-SVG-20010904/DTD/svg10.dtd">
<svg version="1.0" xmlns="http://www.w3.org/2000/svg"
 width="300.000000pt" height="300.000000pt" viewBox="0 0 300.000000 300.000000"
 preserveAspectRatio="xMidYMid meet">
<metadata>
Created by potrace 1.14, written by Peter Selinger 2001-2017
</metadata>
<g transform="translate(0.000000,300.000000) scale(0.100000,-0.100000)"
fill="#000000" stroke="none">
<path d="M400 2994 c0 -5 277 -365 395 -514 65 -82 125 -169 126 -184 3 -32
-6 -65 -31 -118 -71 -146 -92 -278 -59 -369 20 -56 87 -162 177 -278 65 -85
142 -181 152 -191 3 -3 56 -66 117 -140 110 -133 134 -161 196 -230 58 -64 58
-63 42 -93 -8 -15 -12 -27 -10 -27 3 0 0 -11 -5 -25 -5 -14 -12 -46 -16 -72
-37 -261 58 -503 249 -633 57 -39 149 -82 167 -79 3 0 19 -5 35 -11 89 -34
250 -30 372 9 166 54 292 161 366 313 25 51 45 100 45 108 0 8 4 34 10 58 14
61 12 216 -4 282 -17 67 -63 180 -81 198 -7 7 -13 17 -13 21 0 17 -110 122
-168 159 -95 61 -221 99 -329 97 -34 0 -43 4 -43 17 0 22 -266 546 -300 593
-4 6 -11 26 -15 45 -4 19 -15 53 -25 75 -10 22 -21 47 -24 55 -27 66 -139 195
-196 225 -28 15 -128 45 -168 51 -15 2 -38 6 -52 8 -14 3 -61 6 -105 7 -139 3
-135 -1 -325 301 -91 144 -178 281 -193 305 l-29 43 -129 -1 c-71 0 -129 -3
-129 -5z m1142 -1089 c24 -16 74 -81 145 -187 59 -90 112 -167 116 -173 18
-22 168 -257 170 -266 1 -5 -35 -22 -81 -37 l-82 -28 -35 61 c-19 34 -41 68
-50 75 -8 7 -15 16 -15 21 0 10 -106 159 -171 241 -96 122 -130 209 -106 268
23 55 54 62 109 25z m-286 -161 c19 -9 48 -34 66 -56 18 -22 41 -48 51 -59 9
-10 17 -23 17 -28 0 -5 4 -11 8 -13 10 -4 223 -298 305 -421 6 -8 -13 -34 -54
-75 -46 -48 -64 -61 -70 -50 -19 30 -46 65 -71 91 -16 16 -28 30 -28 33 0 4
-48 81 -147 232 -40 62 -73 117 -73 121 0 5 -3 11 -7 13 -13 5 -59 81 -71 117
-33 94 -3 132 74 95z m952 -754 c23 -7 47 -19 53 -27 6 -7 16 -13 21 -13 21 0
89 -88 109 -140 26 -67 35 -189 20 -259 -35 -163 -144 -261 -296 -267 -98 -3
-156 18 -220 80 -137 135 -139 424 -2 557 42 41 97 71 142 77 17 2 32 5 34 7
7 7 97 -3 139 -15z"/>
</g>
</svg>
